<?xml version="1.0" encoding="UTF-8"?>
<svg width="200px" height="200px" viewBox="0 0 200 200" version="1.1" xmlns="http://www.w3.org/2000/svg">
    <g stroke="none" stroke-width="1" fill="none" fill-rule="evenodd">
        <g transform="translate(20, 20)">
            <!-- Clipboard -->
            <rect fill="#f5f7fa" x="30" y="0" width="100" height="140" rx="8"></rect>
            <rect stroke="#6c5ce7" stroke-width="2" x="30" y="0" width="100" height="140" rx="8"></rect>
            
            <!-- Clipboard top -->
            <rect fill="#6c5ce7" x="65" y="-10" width="30" height="20" rx="5"></rect>
            
            <!-- Task lines -->
            <rect fill="#dfe6e9" x="45" y="30" width="70" height="10" rx="2"></rect>
            <rect fill="#dfe6e9" x="45" y="50" width="70" height="10" rx="2"></rect>
            <rect fill="#dfe6e9" x="45" y="70" width="70" height="10" rx="2"></rect>
            <rect fill="#dfe6e9" x="45" y="90" width="70" height="10" rx="2"></rect>
            
            <!-- Checkboxes -->
            <rect stroke="#dfe6e9" stroke-width="2" x="40" y="28" width="14" height="14" rx="2"></rect>
            <rect stroke="#dfe6e9" stroke-width="2" x="40" y="48" width="14" height="14" rx="2"></rect>
            <rect stroke="#dfe6e9" stroke-width="2" x="40" y="68" width="14" height="14" rx="2"></rect>
            <rect stroke="#dfe6e9" stroke-width="2" x="40" y="88" width="14" height="14" rx="2"></rect>
            
            <!-- Pencil -->
            <g transform="translate(110, 110)">
                <rect fill="#fd79a8" transform="rotate(45)" x="0" y="-5" width="40" height="10" rx="2"></rect>
                <polygon fill="#2d3436" transform="rotate(45)" points="40,-5 50,0 40,5"></polygon>
            </g>
        </g>
    </g>
</svg>
